
        <svg xmlns="http://www.w3.org/2000/svg" xmlns:xlink="http://www.w3.org/1999/xlink" version="1.1" width="3191.968776643145" 
        height="3191.998121903347" viewBox="0 0 3191.968776643145 3191.998121903347">
			<rect fill="#222831" width="3191.968776643145" height="3191.998121903347"/>
			<g transform="scale(9.599906095167352) translate(10, 10)">
				<defs id="SvgjsDefs1069"><linearGradient id="SvgjsLinearGradient1078"><stop id="SvgjsStop1079" stop-color="#fbb040" offset="0"></stop><stop id="SvgjsStop1080" stop-color="#f9ed32" offset="1"></stop></linearGradient><linearGradient id="SvgjsLinearGradient1081"><stop id="SvgjsStop1082" stop-color="#fbb040" offset="0"></stop><stop id="SvgjsStop1083" stop-color="#f9ed32" offset="1"></stop></linearGradient><linearGradient id="SvgjsLinearGradient1084"><stop id="SvgjsStop1085" stop-color="#fbb040" offset="0"></stop><stop id="SvgjsStop1086" stop-color="#f9ed32" offset="1"></stop></linearGradient><linearGradient id="SvgjsLinearGradient1087"><stop id="SvgjsStop1088" stop-color="#fbb040" offset="0"></stop><stop id="SvgjsStop1089" stop-color="#f9ed32" offset="1"></stop></linearGradient></defs><g id="SvgjsG1070" featureKey="rootContainer" transform="matrix(1.5292539637583238,0,0,1.5292539637583238,0,0)" fill="url(#SvgjsLinearGradient1078)"><path xmlns="http://www.w3.org/2000/svg" d="M102.174 199.588c53.8 0 97.413-43.613 97.413-97.413S155.974 4.762 102.174 4.762 4.761 48.375 4.761 102.175s43.614 97.413 97.413 97.413zm0-189.826c50.957 0 92.413 41.457 92.413 92.413s-41.456 92.413-92.413 92.413c-50.957 0-92.413-41.457-92.413-92.413S51.218 9.762 102.174 9.762z"></path><path xmlns="http://www.w3.org/2000/svg" d="M102.174 191.585c49.38 0 89.41-40.03 89.41-89.41s-40.03-89.41-89.41-89.41c-49.38 0-89.41 40.03-89.41 89.41s40.03 89.41 89.41 89.41zm0-176.82c48.198 0 87.41 39.212 87.41 87.41s-39.212 87.41-87.41 87.41c-48.198 0-87.41-39.212-87.41-87.41s39.212-87.41 87.41-87.41z"></path><path xmlns="http://www.w3.org/2000/svg" d="M102.174 204.35c56.339 0 102.174-45.835 102.174-102.175S158.513 0 102.174 0C45.835 0 0 45.835 0 102.175S45.835 204.35 102.174 204.35zm0-202.35c55.236 0 100.174 44.938 100.174 100.175S157.411 202.35 102.174 202.35C46.938 202.35 2 157.411 2 102.175S46.938 2 102.174 2z"></path></g><g id="SvgjsG1071" featureKey="symbolFeature-0" transform="matrix(0.9552339748226408,0,0,0.9552339748226408,108.23831492359957,67.87799271287193)" fill="url(#SvgjsLinearGradient1081)"><g xmlns="http://www.w3.org/2000/svg"><path d="M91.7650833,21.3234005C91.6070023,20.9466,91.3104858,20.8708,91.1907806,20.8558006   c-0.6640015-0.082201-7.0329971-0.5474014-12.1018982-0.4117012c-5.4897003,0.1135998-9.9614029-1.7957001-12.636879-2.9382992   c-0.35392-0.151001-0.6805191-0.2905998-1.04142-0.4342003c-2.0175018-0.5718002-3.2851982-0.5632992-4.1082001,0.0293999   c-0.9692001,0.6968994-1.1097984,2.0559006-1.1845016,3.6272011c-0.0388832,0.7612-0.3205986,1.3673992-0.8604965,1.8534985   c-1.5708008,1.4133015-4.7080002,1.2597008-4.7413864,1.2577L53.8978844,23.8055v10.9389992l0.3824005,0.1415024   c1.4585991,0.5393982,2.7094002,0.7358971,3.7707138,0.7358971c2.0030861,0,3.3325844-0.6994972,4.1112862-1.1086998   c0.1245995-0.0657997,0.2717133-0.1431007,0.3713989-0.1879997c2.3076019,1.3445015,5.5049973,2.1310997,8.0673981-1.2947006   c4.8914032,2.1113014,6.7674026-1.2447987,7.3964996-2.3693981c0.0035019-0.0060005,0.0065002-0.0115013,0.0100021-0.0174999   c2.1267014,0.405899,3.7886963,0.1716003,4.9458008-0.6944008c0.8797989-0.6599998,1.424202-1.6371002,1.6221008-2.9102993   c3.5445175,0.302599,5.3600006-1.0065002,6.2697983-2.1990013C91.8537827,23.5179005,92.0277863,21.9480991,91.7650833,21.3234005z    M89.8268814,24.2397003c-1.1236954,1.3689995-3.0917969,1.9118004-5.6934967,1.5727997l-0.6182022-0.0806999l-0.0419006,0.6221008   c-0.0818024,1.2168999-0.4929962,2.1112995-1.2222824,2.6575985c-0.9408188,0.7059002-2.413414,0.8430004-4.3815155,0.4083004   l-0.1760025-0.0387993l-0.1674805,0.0667c-0.2473145,0.0986996-0.3614197,0.3030987-0.5508194,0.6420994   c-0.6221848,1.1137009-2.0778961,3.723402-6.3097,1.6825008l-0.405899-0.1959l-0.2930984,0.3419991   c-0.0438004,0.0513-0.1056976,0.1361008-0.1838989,0.2467003c-1.104805,1.5554008-3.0111008,3.3580017-6.849102,1.036499   c-0.4067993-0.2029991-0.8075981,0.0074005-1.3166008,0.274601c-1.0822983,0.5694008-3.0648842,1.6111984-6.5475006,0.4462013   v-8.9070015c1.1211014-0.0238991,3.4975014-0.2392006,4.9687004-1.5604c0.7742004-0.6959,1.1949196-1.5932007,1.2498016-2.6690006   c0.0706978-1.4984989,0.2033997-2.3783989,0.6983986-2.7342987c0.4915009-0.3540001,1.507-0.3061008,3.0424042,0.1250992   c0.2936935,0.1207008,0.6151962,0.2577,0.9631958,0.4062996c2.7627029,1.1800003,7.3880005,3.1725006,13.1249008,3.0320015   c4.4672165-0.1197014,10.0908966,0.2441998,11.5888977,0.3708C90.707283,22.4211998,90.5446854,23.3647995,89.8268814,24.2397003z"></path><path d="M37.8376846,34.5131989c0.778698,0.4092026,2.1077003,1.1086998,4.1113167,1.1086998   c1.0612831,0,2.3120842-0.1964989,3.7706833-0.7358971l0.3824005-0.1415024L46.1015854,23.8055l-0.6177025,0.0338993   c-0.0318832,0.0020008-3.1699982,0.1556015-4.7413979-1.2577c-0.5398026-0.4860992-0.8214836-1.0922985-0.8599014-1.8514996   c-0.0751991-1.5732994-0.2159004-2.9323006-1.1850014-3.6292c-0.8224983-0.5918007-2.0901985-0.6016998-4.1709976-0.0079994   c-0.2981987,0.1222-0.6246986,0.2617989-0.9785843,0.4127998c-2.6761169,1.1430988-7.1527157,3.0508995-12.6339149,2.9386997   c-5.0733004-0.1375008-11.4404011,0.3285007-12.1044006,0.4113007C8.6894846,20.8708,8.3928852,20.9466,8.2348852,21.3234005   c-0.2627006,0.6246986-0.0887003,2.1945,0.9197998,3.5164986c0.9096994,1.1925011,2.7297993,2.5036011,6.2697992,2.1990013   c0.1979008,1.2731991,0.7422009,2.2502995,1.6221008,2.9102993c1.156599,0.8668995,2.8181,1.0998001,4.9457989,0.6944008   c0.0035,0.0059986,0.0065002,0.0114994,0.0100002,0.0174999c0.6286163,1.1252003,2.5030003,4.4826984,7.3964996,2.3693981   c2.577301,3.4453011,5.7957001,2.6317024,8.0658989,1.2942009C37.5650826,34.3694992,37.7120857,34.4468002,37.8376846,34.5131989z    M37.0255852,33.2244987c-3.7951012,2.2961998-5.7035007,0.4955025-6.8082008-1.0593987   c-0.0781994-0.1105995-0.1401005-0.1954002-0.184-0.2467003l-0.2931004-0.3419991l-0.4057999,0.1959   c-4.2318001,2.0384979-5.6870003-0.5693016-6.3097-1.6825008c-0.1893997-0.3390007-0.3036003-0.5433998-0.5507832-0.6420994   l-0.1676159-0.0667l-0.1759014,0.0387993c-1.9660988,0.4347-3.4403,0.2975998-4.3814831-0.4083004   c-0.7293167-0.546299-1.1405163-1.4406986-1.2223167-2.6575985l-0.0418987-0.6221008L15.8665848,25.8125   c-2.6016998,0.3390007-4.5699005-0.2038002-5.6935005-1.5727997c-0.7177992-0.8749008-0.8803997-1.8185005-0.8788996-2.2537994   c1.4981003-0.1261005,7.117816-0.4890003,11.592-0.3703003c5.7294998,0.1091003,10.3586998-1.8525009,13.1218987-3.0325012   c0.3479996-0.1485996,0.6695023-0.2855988,0.9002991-0.3848991c1.5993004-0.451601,2.6137009-0.5,3.1053009-0.1464996   c0.4949989,0.3558998,0.6276016,1.2357998,0.6989021,2.7362995c0.0544128,1.0737991,0.4750977,1.9710999,1.2492981,2.6669998   c1.4715996,1.3211994,3.8474998,1.5365009,4.9687004,1.5604v8.9070015   c-3.4821014,1.1665001-5.4651985,0.1240997-6.5475006-0.4462013c-0.3568993-0.1879005-0.6615982-0.3479004-0.9660835-0.3479004   C37.2877846,33.1282997,37.1586838,33.1571999,37.0255852,33.2244987z"></path><path d="M64.7791824,43.1846008c-0.112999-0.2905998-0.1903-0.6085014-0.3548965-0.8689995   c-0.1644058-0.2601013-0.3293991-0.5276031-0.5115013-0.7726021l-0.6203995-0.639801   c-0.2162018-0.1945-0.4493866-0.3487968-0.6766014-0.5217972c-0.2261009-0.1830025-0.4692993-0.2871017-0.7056007-0.4298019   c-0.2371826-0.142498-0.4784012-0.2552986-0.7215004-0.3564987c-0.2425003-0.1048012-0.485199-0.219902-0.7303009-0.2966995   c-0.4888992-0.1826019-0.9806976-0.3207016-1.4735985-0.4517021c-0.993-0.2413979-1.960598-0.3998985-3.0046997-0.4754982   c-0.0125008-0.0009003-0.0307999-0.0019989-0.043499-0.0025024c-0.7274017-0.0285988-1.3402023,0.5379028-1.3689003,1.2654037   c-0.0284996,0.7273979,0.537899,1.3401985,1.2653999,1.3688965l0.0213013,0.0008011   c0.8269997,0.0325012,1.7203979,0.1462021,2.5542984,0.3235016c0.4160995,0.0977974,0.8303146,0.1991005,1.2244987,0.3330994   c0.2054024,0.0552979,0.3879013,0.1395988,0.5782013,0.2137985c0.1931992,0.071701,0.3789978,0.1506996,0.5458984,0.2476997   c0.165802,0.0960999,0.3651009,0.1669006,0.5032997,0.2829018c0.1459999,0.1091003,0.3134193,0.2047997,0.4480019,0.3187981   c0.1204147,0.1218033,0.2439995,0.2396011,0.3722992,0.3554001l0.2751999,0.3908997   c0.0984993,0.1277008,0.1133995,0.2854004,0.1863022,0.4225006c0.0848999,0.1334,0.0719986,0.3043022,0.1002998,0.4610023   c0.0281982,0.1569977,0.060997,0.3169975,0.0217972,0.4987984l-0.0343971,0.4271011   c-0.1763,0.351799-0.3624001,0.6996994-0.6264,1.0004005c-0.2756004,0.3523979-0.6186028,0.6618996-0.9924011,0.9474983   c-0.7580986,0.5637016-1.6621017,1.0086021-2.634285,1.3598022c-0.9708138,0.3565979-1.9961166,0.6394997-3.049614,0.9098969   c-0.5423851,0.1441002-1.0203018,0.2540016-1.5583839,0.3679008l-1.6101189,0.3431015   c-0.0313988,0.0069008-0.0630989,0.0147972-0.0944977,0.0217972l0.3204994-31.3484974   c1.5463982-0.8804016,2.527401-2.5459003,2.527401-4.3411007c0-2.7518005-2.2388-4.9905996-4.9906006-4.9905996   c-2.7523003,0-4.9911003,2.2387991-4.9911003,4.9905996c0,1.8216,1.0009995,3.4981003,2.5792999,4.3694992l0.6778984,31.2495995   l-1.3817825-0.2943993c-0.5381165-0.1138992-1.0161171-0.2238007-1.5584145-0.3679008   c-1.0535851-0.2703972-2.0788002-0.553299-3.0497017-0.9098969c-0.9720993-0.3512001-1.8760986-0.7961006-2.634201-1.3598022   c-0.3738976-0.2855988-0.7168999-0.5951004-0.9923973-0.9474983c-0.2641029-0.3007011-0.4502029-0.6486015-0.6264-1.0004005   l-0.0344009-0.4271011c-0.0391998-0.1818008-0.0064011-0.3418007,0.021698-0.4987984   c0.0284004-0.1567001,0.0153999-0.3276024,0.1004028-0.4610023c0.0728989-0.1371002,0.0876999-0.2947998,0.1861992-0.4225006   l0.2752991-0.3908997c0.1282997-0.115799,0.251915-0.2335968,0.3722-0.3554001   c0.1346016-0.1139984,0.302002-0.2096977,0.4480019-0.3187981c0.1381989-0.1160011,0.3374977-0.1868019,0.5033989-0.2829018   c0.1669006-0.0970001,0.3526001-0.1759987,0.5457993-0.2476997c0.1903-0.0741997,0.3729019-0.1585007,0.5783005-0.2137985   c0.3941002-0.1339989,0.8083-0.235302,1.2243996-0.3330994c0.8339996-0.1772995,1.7272987-0.2910004,2.5543022-0.3235016   l0.0270996-0.0010986c0.0125999-0.0004997,0.0251999-0.0013008,0.0376968-0.0022011   c0.7261009-0.0526009,1.2721024-0.6837997,1.2195015-1.4099007c-0.0527-0.7261009-0.6838989-1.2719994-1.4099998-1.2193985   c-1.0439987,0.0755997-2.0116997,0.2341003-3.0046005,0.4754982c-0.4929008,0.1310005-0.9846992,0.2691002-1.4736977,0.4517021   c-0.2450027,0.0767975-0.4877014,0.1918983-0.7303009,0.2966995c-0.243,0.1012001-0.4841843,0.2140007-0.7215004,0.3564987   c-0.2361984,0.1427002-0.4794006,0.2467995-0.7055016,0.4298019c-0.2272987,0.1730003-0.4603996,0.3272972-0.6767006,0.5217972   l-0.6203995,0.639801c-0.1820831,0.2449989-0.347084,0.5125008-0.5114975,0.7726021   c-0.1645851,0.260498-0.2419014,0.5783997-0.3549004,0.8689995c-0.1273994,0.2938995-0.1346016,0.6028976-0.172802,0.9087982   c-0.0378838,0.3082008-0.0632973,0.6135025-0.0098839,0.8977013l0.1107864,0.8666992   c0.0093002,0.0709,0.0309982,0.144001,0.0653992,0.2112999l0.0116005,0.0223999   c0.2964973,0.5788002,0.6313972,1.1487999,1.0699005,1.6267014c0.4190979,0.4950981,0.9090996,0.9097977,1.4165993,1.2705994   c1.0248985,0.7116013,2.1306,1.1937981,3.2266006,1.5533981c1.0977974,0.3638,2.1964989,0.6266022,3.2715988,0.8669014   c0.5197983,0.1217003,1.1130981,0.2397003,1.6497002,0.3348007l0.293499,0.0527992   c-0.3424988,0.1400986-0.6865005,0.2727013-1.0243988,0.4359016c-1.0371017,0.5167999-2.0795021,1.1655006-2.8862839,2.1736984   c-0.3953171,0.5049019-0.7083168,1.1126022-0.8541183,1.7643013c-0.1498833,0.6512985-0.130497,1.3213997-0.0100975,1.9418983   L41.9566841,58.1278c0.0097008,0.0486984,0.0253983,0.0970993,0.0474014,0.1441994   c0.2613983,0.5606003,0.5681992,1.1430016,0.9779129,1.6749001c0.4066849,0.533699,0.9099998,0.9939995,1.4461861,1.3687019   c0.5368996,0.3806992,1.1116982,0.656498,1.6843987,0.9149971c0.5767021,0.2457008,1.1604156,0.4472008,1.7457008,0.632   c0.0067177,0.0021019,0.0135002,0.0034027,0.0201988,0.0054016l-0.0097008,0.0020981L47.814682,62.882l-0.0898972,0.0237999   l-0.0130997,0.0049019l-0.0261002,0.0098991l-0.1045837,0.0396004c-0.1414185,0.0564995-0.2745171,0.0970993-0.4229164,0.1666985   c-0.6392021,0.3269997-1.1609993,0.6708984-1.6260834,1.1118011c-0.4798164,0.4182968-0.8944168,0.9101028-1.2465172,1.449501   c-0.3556023,0.5386963-0.6030998,1.1540985-0.7472992,1.8037949c-0.0454025,0.3285065-0.0496025,0.6697006-0.0592995,1.0014038   c0.0676994,0.3280029,0.1158981,0.6651993,0.2131996,0.9807968l0.4356003,0.8877029l0.6100998,0.7462997   c0.1954994,0.2575989,0.4702988,0.4164963,0.7018967,0.6280975c0.2436028,0.1957016,0.4745026,0.4128036,0.7495003,0.5517044   c0.5356026,0.2999954,1.0432014,0.6621017,1.613903,0.8733978c0.3006973,0.1200027,0.5952988,0.2581024,0.8920975,0.3880997   l0.0125999,0.5814972c-0.1890984,0.0991058-0.3750992,0.2050018-0.5538979,0.3258057   c-0.3280029,0.2186966-0.6411018,0.4726944-0.9011993,0.7893982c-0.1306,0.1548004-0.2423019,0.3356018-0.3353004,0.5206985   c-0.0842018,0.1949997-0.1578026,0.3928986-0.1720009,0.610199c-0.050602,0.2105026,0.0123978,0.4253998,0.030201,0.6325989   c0.0774155,0.190506,0.1112976,0.4081039,0.230999,0.5718002c0.1049995,0.1727066,0.1992989,0.3544006,0.3376007,0.4953995   c0.1313972,0.1467056,0.2478142,0.3105011,0.4001007,0.4312057c0.2813988,0.2713013,0.5870972,0.5051956,0.9040985,0.7215958   c0.0554008,0.040802,0.1152992,0.0738983,0.1725006,0.1116028l0.0326996,1.5112991   c-0.2139015,0.1728973-0.4265022,0.3480988-0.6189995,0.5484009c-0.2358017,0.245697-0.4459,0.523201-0.5914993,0.836998   c-0.151001,0.3115005-0.2150841,0.6644974-0.1888008,1.0085983c0.0039978,0.1725006,0.0690994,0.3364029,0.1012001,0.5039063   c0.0629005,0.1581955,0.1391983,0.3110962,0.2081985,0.466095c0.1810989,0.2863007,0.3697014,0.5664978,0.6056023,0.8075027   c0.1807976,0.2041016,0.3830986,0.384697,0.5870972,0.5634995l0.0774994,3.5722961   c0.0144005,0.7117996,0.6052017,1.2906036,1.3166008,1.2906036c0.7168007,0,1.3071022-0.5831985,1.3161011-1.3015976   l0.0372009-3.6431046c0.1719971-0.1553955,0.3472977-0.3071976,0.5018997-0.4816971   c0.2357979-0.2410049,0.4244995-0.5212021,0.6054993-0.8075027c0.0690002-0.1549988,0.145298-0.3078995,0.2081985-0.466095   c0.0321007-0.1675034,0.0972023-0.3314056,0.1012001-0.5039063c0.0264168-0.344101-0.0377998-0.6970978-0.1886978-1.0085983   c-0.1457024-0.313797-0.3558006-0.591301-0.5916023-0.836998c-0.183197-0.1907043-0.3862839-0.3563995-0.5891991-0.5220032   l0.0158005-1.5459976c0.0527992-0.0351028,0.1082993-0.0655975,0.1596985-0.103302   c0.3169022-0.2164001,0.6226006-0.4502945,0.9040031-0.7215958c0.152298-0.1207047,0.2686996-0.2845001,0.4000969-0.4312057   c0.138401-0.1409988,0.2327003-0.3226929,0.3376999-0.4953995c0.1196175-0.1636963,0.1536179-0.3812943,0.2310028-0.5718002   c0.0177002-0.2071991,0.0807991-0.4220963,0.030098-0.6325989c-0.0140991-0.2173004-0.0876999-0.4151993-0.1720009-0.610199   c-0.0928993-0.1850967-0.2046967-0.3658981-0.3352966-0.5206985c-0.2601013-0.3167038-0.573101-0.5707016-0.9011002-0.7893982   c-0.1934013-0.1306992-0.3956032-0.243103-0.6008034-0.3488998l0.0055008-0.5382004   c0.3150024-0.1362991,0.6273994-0.2812042,0.9461021-0.4083023c0.5705986-0.2112961,1.0783005-0.5734024,1.6138-0.8733978   c0.2750969-0.1389008,0.5058975-0.3560028,0.7495003-0.5517044c0.2316971-0.2116013,0.5063972-0.3704987,0.7019997-0.6280975   l0.6100998-0.7462997l0.4356003-0.8877029c0.0971985-0.3155975,0.1455002-0.6527939,0.2131996-0.9807968   c-0.0097008-0.3317032-0.0139999-0.6728973-0.0594025-1.0014038c-0.1441994-0.6496964-0.3915977-1.2650986-0.7472-1.8037949   c-0.3521996-0.5393982-0.7667999-1.0312042-1.2465973-1.449501c-0.4650002-0.4409027-0.9868851-0.7848015-1.6261024-1.1118011   c-0.1483994-0.0695992-0.2813988-0.110199-0.4228973-0.1666985l-0.1046028-0.0396004l-0.0261002-0.0098991l-0.0130997-0.0049019   L52.7601852,62.882l-0.0540009-0.0119019L52.6964836,62.868c0.0066986-0.0019989,0.013401-0.0032997,0.0200996-0.0054016   c0.5853004-0.1847992,1.1689987-0.3862991,1.7457008-0.632c0.5727158-0.2584991,1.1474991-0.5342979,1.6843987-0.9149971   c0.5362015-0.3747025,1.0396004-0.8350029,1.4462013-1.3687019c0.4096985-0.5318985,0.7164993-1.1142998,0.9780006-1.6749001   c0.0206985-0.0452003,0.0379982-0.0964012,0.0478973-0.1474991l0.0023003-0.012001   c0.1205025-0.6204987,0.1399193-1.2905998-0.0099983-1.9418983c-0.1458015-0.6516991-0.4589005-1.2593994-0.8542023-1.7643013   c-0.806797-1.0081978-1.8491974-1.6568985-2.8862-2.1736984c-0.3379974-0.1632004-0.6819-0.2958031-1.024498-0.4359016   l0.2935982-0.0527992c0.536602-0.0951004,1.1298027-0.2131004,1.6497002-0.3348007   c1.0750999-0.2402992,2.1737022-0.5031013,3.2715187-0.8669014c1.0960808-0.3596001,2.201683-0.8417969,3.2266808-1.5533981   c0.5074005-0.3608017,0.9974022-0.7755013,1.4165001-1.2705994c0.4386024-0.4779015,0.7735023-1.0479012,1.0700035-1.6267014   l0.0128174-0.024601c0.0323792-0.063797,0.0544815-0.1340981,0.0640793-0.2090988l0.1109161-0.8666992   c0.0533829-0.2841988,0.0278854-0.5895004-0.0099945-0.8977013C64.913887,43.7874985,64.9066849,43.4785004,64.7791824,43.1846008z    M46.1020851,14.5401001c0-2.1057005,1.713398-3.8191004,3.8195992-3.8191004c2.1058006,0,3.8190994,1.7133999,3.8190994,3.8191004   c0,1.4696007-0.8588982,2.8260994-2.1884003,3.4547005l-0.331501,0.156599l-0.3307991,32.3501968   c-0.2010841,0.047802-0.4015007,0.0980034-0.6026001,0.1485023c-0.3078003-0.077301-0.6146011-0.151001-0.9220009-0.2224998   l-0.6999969-32.2622986l-0.3340034-0.1525002C46.9770012,17.3931999,46.1020851,16.0301991,46.1020851,14.5401001z    M50.5880852,80.0390015l-0.0158005-0.0088043l0.0158997-0.008194L50.5880852,80.0390015z M50.5914841,79.7037964   l-0.3040009,0.1685028L50.000885,79.713501l-0.1188011-5.4765015l0.4053993-0.1315994l0.3600006,0.1168976L50.5914841,79.7037964z    M50.2874832,63.4766998c0.1562996,0.0341988,0.3125153,0.0684013,0.4688988,0.1012001l-0.1000977,9.7885017l-0.3688011,0.1327972   l-0.4246979-0.1529999l-0.2112007-9.7322006C49.8636856,63.5699997,50.0754852,63.5231018,50.2874832,63.4766998z    M50.2874832,62.2994003c-0.223999-0.0579987-0.4460983-0.1196022-0.6683998-0.1815987l-0.2040825-9.4107018   c0.2874832-0.0747986,0.5809975-0.1380005,0.8724823-0.205101c0.1940002,0.0447006,0.3883018,0.0886002,0.5806999,0.1365013   l-0.0974998,9.5349998C50.6103821,62.2173004,50.4486847,62.2577019,50.2874832,62.2994003z M46.6350822,61.0653   c-0.5049973-0.2481995-1.0029984-0.5079002-1.4297981-0.8338013c-0.8488998-0.6162987-1.4034004-1.4365997-1.8342857-2.4524002   c-0.1335144-0.8944969,0.0790863-1.7229996,0.6554871-2.4002991c0.5885162-0.6946983,1.4585152-1.2301979,2.387516-1.6507988   c0.5900002-0.263401,1.2080841-0.4794998,1.836483-0.6776009l0.1889992,8.7127991   c-0.0679016-0.0223007-0.138485-0.0391998-0.2061996-0.0620995C47.6867828,61.5091019,47.1488838,61.3036995,46.6350822,61.0653z    M48.0890007,72.5734024c-0.5473175-0.2213058-1.0058174-0.5783997-1.5018158-0.8740005   c-0.2577019-0.1388016-0.4556007-0.3437042-0.6709023-0.5277023c-0.2000999-0.1966019-0.4548988-0.3507996-0.6105995-0.5792999   l-0.5041008-0.6531982l-0.3291969-0.7291031c-0.0659027-0.2532959-0.0889015-0.514595-0.1429024-0.768898   c0.0237999-0.2603989,0.0319023-0.5215988,0.0725174-0.778801c0.1360817-0.5113983,0.3467827-1.0084,0.665184-1.4573975   c0.3138161-0.4476013,0.6869011-0.8670044,1.1180992-1.2173996c0.4080009-0.3748016,0.9151993-0.6591034,1.334301-0.8743057   c0.1217995-0.0550995,0.2767982-0.0985947,0.4134979-0.1483955l0.1058006-0.0362015l0.0004997-0.0000992l0.0320015-0.0060005   l0.2217979-0.0412979l0.1915016-0.0357018l0.1954994,9.0103035C48.4841843,72.759201,48.2892838,72.660202,48.0890007,72.5734024z    M47.9982834,78.2509003c-0.1417007-0.1186981-0.2387009-0.2706985-0.3550987-0.4075012   c-0.1245995-0.1334-0.1966019-0.293602-0.2839012-0.4447021c-0.1035995-0.1469955-0.1132851-0.3209991-0.1781006-0.4774933   c-0.0023003-0.1638031-0.0562973-0.330307-0.0060997-0.4897003c0.0130997-0.1638031,0.0782013-0.3159027,0.1474991-0.4667053   c0.0803032-0.1448975,0.1734161-0.2890015,0.2887001-0.4163971c0.3054008-0.337204,0.6925011-0.6055984,1.1093025-0.8311005   L48.8121834,78.9431C48.5223846,78.7300034,48.2450829,78.5046997,47.9982834,78.2509003z M48.4169998,84.9822998   c-0.2258148-0.245697-0.4018173-0.5270996-0.569416-0.8106995l-0.1861992-0.4548035   c-0.0243835-0.1604004-0.0825005-0.3171005-0.0802994-0.4786987c-0.0138016-0.3223953,0.0549164-0.6447983,0.2049141-0.9309998   c0.144783-0.2881012,0.3510857-0.5443954,0.5848846-0.772995c0.1511993-0.1477051,0.3223-0.2742004,0.4887009-0.4057999   l0.0956001,4.4040985C48.7682838,85.3562012,48.5811844,85.1800003,48.4169998,84.9822998z M50.2053833,89.1360016   l-0.1913834-8.8190002l0.2734833-0.1405029l0.2975998,0.1529007l-0.0900841,8.8060989   C50.492485,89.2945023,50.2078819,89.2959976,50.2053833,89.1360016z M52.2039986,81.5341034   c0.2338867,0.2285995,0.4400864,0.4848938,0.5848846,0.772995c0.150116,0.2862015,0.2187996,0.6086044,0.2048988,0.9309998   c0.0022163,0.1615982-0.0558968,0.3182983-0.0802994,0.4786987l-0.1861992,0.4548035   c-0.1675987,0.2835999-0.3436012,0.5650024-0.5694008,0.8106995c-0.138298,0.1667023-0.2984009,0.3127975-0.4534988,0.4636993   l0.0438995-4.2902985C51.9025841,81.2791977,52.0629997,81.3963013,52.2039986,81.5341034z M52.9636841,75.5484009   c0.1153145,0.1273956,0.2083168,0.2714996,0.2886009,0.4163971c0.069397,0.1508026,0.1343994,0.3029022,0.1474991,0.4667053   c0.0502167,0.1593933-0.0037842,0.3258972-0.0060997,0.4897003c-0.0648003,0.1564941-0.0744019,0.3304977-0.1781006,0.4774933   c-0.0872993,0.1511002-0.1591988,0.3113022-0.2839012,0.4447021c-0.1162987,0.1368027-0.213398,0.2888031-0.3549995,0.4075012   c-0.2444,0.251297-0.5191002,0.473999-0.8056831,0.6851959l0.0432854-4.2410965   C52.246685,74.9244995,52.6483841,75.2003021,52.9636841,75.5484009z M53.0552826,64.1132965   c0.4191017,0.2152023,0.9263992,0.4995041,1.334301,0.8743057c0.4311981,0.3503952,0.8042984,0.7697983,1.1180992,1.2173996   c0.3184013,0.4489975,0.5292015,0.9459991,0.6651993,1.4573975c0.0407028,0.2572021,0.0487022,0.5184021,0.0726013,0.778801   c-0.0540009,0.254303-0.0770988,0.5156021-0.1430016,0.768898l-0.3290977,0.7291031l-0.5041008,0.6531982   c-0.1557999,0.2285004-0.4105988,0.3826981-0.6105995,0.5792999c-0.2154007,0.1839981-0.4132004,0.3889008-0.6710014,0.5277023   c-0.4958992,0.2956009-0.9544983,0.6526947-1.5016823,0.8740005c-0.2214165,0.0958939-0.4365158,0.2055969-0.6532173,0.3120956   l0.092701-9.0706978l0.3562012,0.0665016l0.2217979,0.0412979l0.0321007,0.0060005l0.0004997,0.0000992l0.1057014,0.0362015   C52.7785835,64.0147018,52.9335823,64.058197,53.0552826,64.1132965z M56.5484848,55.3787994   c0.5763969,0.6772995,0.7889977,1.5056992,0.6555138,2.4002991c-0.4309158,1.0158005-0.9854164,1.8361015-1.8343163,2.4524002   c-0.426899,0.325901-0.9249001,0.5856018-1.4298973,0.8338013c-0.5137863,0.2383995-1.0517006,0.4438019-1.5982018,0.6357994   c-0.1297989,0.0438995-0.264801,0.077301-0.3956985,0.1189995l0.0904999-8.8550987   c0.7290001,0.2186012,1.4451981,0.4598007,2.1245003,0.7630005C55.0900002,54.1486015,55.9599991,54.6841011,56.5484848,55.3787994   z"></path><circle cx="49.9215851" cy="14.4383001" r="2.0962"></circle></g></g><g id="SvgjsG1072" featureKey="nameFeature-0" transform="matrix(1.060701772956151,0,0,1.060701772956151,53.928130721911984,162.46101921793638)" fill="url(#SvgjsLinearGradient1084)"><path d="M37.715 40 l-7.4414 0 l-1.875 -20.234 l-6.0742 20.234 l-4.9219 0 l-6.0742 -20.332 l-1.8945 20.332 l-7.4805 0 l2.5195 -28.711 l10.879 0 l4.4922 14.668 l4.5508 -14.668 l10.84 0 z M54.8863125 40.39063 c-8.6719 0 -14.902 -5.8789 -14.902 -14.746 c0 -8.9258 6.2305 -14.766 14.902 -14.766 c8.6914 0 14.922 5.8398 14.922 14.766 c0 8.8672 -6.2305 14.746 -14.922 14.746 z M54.8863125 33.6328 c4.3359 0 7.5781 -3.0664 7.5781 -7.9883 s-3.2422 -8.0078 -7.5781 -8.0078 c-4.3164 0 -7.5195 3.0859 -7.5195 8.0078 s3.2031 7.9883 7.5195 7.9883 z M91.94146875 11.289000000000001 l7.9297 0 l-10.645 28.711 l-8.3594 0 l-10.566 -28.711 l7.9297 0 l6.8555 20.176 z M122.00421875 40 l-1.8555 -5.3125 l-11.484 0 l-1.8359 5.3125 l-7.5586 0 l10.566 -28.711 l9.1602 0 l10.566 28.711 l-7.5586 0 z M110.79321875 28.555 l7.2266 0 l-3.6133 -10.391 z M144.527625 40.39063 c-8.4375 0 -14.473 -5.8789 -14.473 -14.668 c0 -8.9648 6.2305 -14.844 14.902 -14.844 c5.7617 0 10.41 2.5586 12.93 6.7969 l-6.5234 3.4766 c-1.2695 -2.6367 -3.5547 -3.9063 -6.4063 -3.9063 c-4.3164 0 -7.4805 2.9883 -7.4805 8.2813 c0 4.9609 2.8125 8.5156 7.7734 8.5156 c2.7539 0 5.8008 -1.1133 6.7188 -4.3555 l-6.6797 0 l0 -5.8789 l13.633 0 l0 16.191 l-5.7617 0 l0 -3.0859 c-1.7969 2.1289 -4.5508 3.4766 -8.6328 3.4766 z M182.94953125 40 l-1.8555 -5.3125 l-11.484 0 l-1.8359 5.3125 l-7.5586 0 l10.566 -28.711 l9.1602 0 l10.566 28.711 l-7.5586 0 z M171.73853125 28.555 l7.2266 0 l-3.6133 -10.391 z"></path></g><g id="SvgjsG1073" featureKey="sloganFeature-0" transform="matrix(0.5701547239373352,0,0,0.5701547239373352,75.47720387162732,223.41496974783098)" fill="url(#SvgjsLinearGradient1087)"><path d="M4.38 6.92 c0.02 -0.06 0.06 -0.12 0.14 -0.12 l2.48 0 c0.08 0 0.12 0.06 0.14 0.12 l3.46 12.86 c0.02 0.12 -0.06 0.22 -0.18 0.22 l-2.28 0 c-0.06 0 -0.12 -0.04 -0.14 -0.12 l-0.78 -2.8 l-2.92 0 l-0.76 2.8 c-0.02 0.08 -0.06 0.12 -0.14 0.12 l-2.3 0 c-0.12 0 -0.2 -0.1 -0.18 -0.22 z M4.94 14.6 l1.66 0 l-0.86 -3.02 z M8.02 15.780000000000001 l0.92 3 c0.04 0.12 0.26 0.1 0.2 -0.06 l-3.2 -10.64 c-0.06 -0.26 -0.4 -0.28 -0.46 0 l-3.1 10.64 c-0.06 0.14 0.16 0.2 0.22 0.08 l0.88 -3.02 l4.54 0 z M3.54 15.52 l2.18 -7.36 l2.22 7.36 l-4.4 0 z M16.9945 17.5 l4.7 0 c0.1 0 0.18 0.08 0.18 0.18 l0 2.14 c0 0.1 -0.08 0.18 -0.18 0.18 l-7.72 0 c-0.08 0 -0.18 -0.04 -0.18 -0.18 l0 -2.22 s0 -0.02 0.02 -0.08 l4.82 -8.22 l-4.72 0 c-0.1 0 -0.18 -0.08 -0.18 -0.18 l0 -2.14 c0 -0.1 0.08 -0.18 0.18 -0.18 l7.78 0 c0.12 0 0.14 0.12 0.14 0.16 l0 2.24 c0 0.02 0 0.06 -0.02 0.08 z M15.0345 7.9 c-0.14 0 -0.12 0.26 0 0.26 l5.4 0 c0.14 0 0.16 0.04 0.1 0.14 l-5.76 10.06 c-0.1 0.2 0 0.52 0.3 0.52 l5.46 0 c0.16 0 0.16 -0.26 0 -0.26 l-5.46 0 c-0.08 0 -0.1 -0.06 -0.08 -0.14 l5.74 -10.08 c0.2 -0.34 0.04 -0.5 -0.2 -0.5 l-5.5 0 z M33.9635 20 c-0.1 0 -0.16 -0.08 -0.16 -0.18 l0 -12.84 c0 -0.1 0.06 -0.18 0.16 -0.18 l6.8 0 c0.1 0 0.18 0.08 0.18 0.18 l0 2.14 c0 0.1 -0.08 0.18 -0.18 0.18 l-4.32 0 l0 2.72 l3.36 0 c0.1 0 0.16 0.08 0.16 0.18 l0 2.18 c0 0.1 -0.06 0.18 -0.16 0.18 l-3.36 0 l0 2.94 l4.32 0 c0.1 0 0.18 0.08 0.18 0.18 l0 2.14 c0 0.1 -0.08 0.18 -0.18 0.18 l-6.8 0 z M34.9635 8.06 l0 10.64 c0 0.12 0.08 0.16 0.16 0.16 l4.6 0 c0.18 0 0.14 -0.24 0 -0.24 l-4.5 0 l0 -5.22 l3.68 0 c0.12 0 0.12 -0.28 0 -0.28 l-3.68 0 l0 -4.96 l4.5 0 c0.14 0 0.18 -0.26 0 -0.26 l-4.6 0 c-0.08 0 -0.16 0.06 -0.16 0.16 z M48.837999999999994 15.2 c-0.1 0 -0.18 -0.08 -0.18 -0.18 l0 -2.14 c0 -0.1 0.08 -0.18 0.18 -0.18 l4.58 0 c0.1 0 0.18 0.08 0.18 0.18 l0 3.14 c0 2.94 -1.58 4.18 -4.56 4.18 c-2.78 0 -4.6 -1.1 -4.6 -4.18 l0 -5.26 c0 -2.9 1.62 -4.14 4.6 -4.14 c2.8 0 4.56 1.08 4.56 4.14 l0 0.42 c0 0.1 -0.08 0.18 -0.18 0.18 l-2.3 0 c-0.1 0 -0.18 -0.08 -0.18 -0.18 l0 -0.26 c0 -1.22 -0.78 -1.62 -1.8 -1.62 l-0.24 0 c-0.66 0 -1.1 0.18 -1.4 0.58 c-0.28 0.38 -0.38 0.88 -0.38 1.54 l0 3.96 c0 1.74 0.94 2.12 1.78 2.12 l0.24 0 c1.22 0 1.8 -0.84 1.8 -2.12 l0 -0.18 l-2.1 0 z M45.658 15.879999999999999 c0 2.22 1.08 3.04 3.36 3.04 c2.4 0 3.38 -1 3.38 -3.46 l0 -1.5 c0 -0.06 -0.04 -0.14 -0.08 -0.14 l-2.78 0 c-0.18 0 -0.14 0.26 0 0.26 l2.62 0 l0 1.38 c0 2.14 -0.82 3.24 -3.14 3.24 c-1.92 0 -3.12 -0.68 -3.12 -2.82 l0 -4.82 c0 -2.06 0.94 -2.98 3.12 -2.98 c1.62 0 3.1 0.9 2.98 2.28 c0 0.16 0.22 0.2 0.26 0.02 c0 -1.76 -1.6 -2.52 -3.24 -2.52 c-2 0 -3.36 0.72 -3.36 3.2 l0 4.82 z M57.5325 20 c-0.1 0 -0.16 -0.08 -0.16 -0.18 l0 -12.84 c0 -0.1 0.06 -0.18 0.16 -0.18 l6.8 0 c0.1 0 0.18 0.08 0.18 0.18 l0 2.14 c0 0.1 -0.08 0.18 -0.18 0.18 l-4.32 0 l0 2.72 l3.36 0 c0.1 0 0.16 0.08 0.16 0.18 l0 2.18 c0 0.1 -0.06 0.18 -0.16 0.18 l-3.36 0 l0 2.94 l4.32 0 c0.1 0 0.18 0.08 0.18 0.18 l0 2.14 c0 0.1 -0.08 0.18 -0.18 0.18 l-6.8 0 z M58.5325 8.06 l0 10.64 c0 0.12 0.08 0.16 0.16 0.16 l4.6 0 c0.18 0 0.14 -0.24 0 -0.24 l-4.5 0 l0 -5.22 l3.68 0 c0.12 0 0.12 -0.28 0 -0.28 l-3.68 0 l0 -4.96 l4.5 0 c0.14 0 0.18 -0.26 0 -0.26 l-4.6 0 c-0.08 0 -0.16 0.06 -0.16 0.16 z M60.4925 4.52 l0.32 -1.62 c0.02 -0.08 0.08 -0.12 0.18 -0.12 l1.54 0 c0.18 0 0.28 0.1 0.16 0.28 l-1.06 1.52 c-0.06 0.12 -0.14 0.14 -0.2 0.14 l-0.76 0 c-0.08 0 -0.2 -0.06 -0.18 -0.2 z M61.1725 4.0600000000000005 c-0.08 0.14 0.16 0.26 0.22 0.1 l0.28 -0.76 c0.04 -0.14 -0.18 -0.28 -0.26 -0.08 z M72.767 11.9 c1.52 0.72 3.5 1.86 3.5 3.92 c0 0.6 -0.1 1.76 -0.76 2.74 c-0.74 1.1 -1.9 1.64 -3.5 1.64 c-1.7 0 -3.68 -0.82 -4.3 -2.68 c-0.02 -0.06 0 -0.12 0.06 -0.16 l1.84 -1.58 c0.08 -0.06 0.2 -0.06 0.26 0.04 c0.04 0.1 0.12 0.26 0.22 0.46 c0.3 0.62 1.02 1.24 1.82 1.24 c0.62 0 1.46 -0.34 1.46 -1.3 c0 -0.92 -1.26 -1.44 -2.04 -1.74 c-0.9 -0.36 -1.82 -0.82 -2.6 -1.5 c-0.82 -0.76 -1.22 -1.6 -1.22 -2.6 c0 -2.5 2.3 -3.76 4.48 -3.76 c1.72 0 3 0.9 3.84 2.68 c0.04 0.08 0 0.18 -0.06 0.22 l-1.78 1.24 c-0.08 0.04 -0.12 0.04 -0.2 -0.06 c-0.68 -0.98 -1.28 -1.44 -2.08 -1.44 c-0.42 0 -1.4 0.16 -1.4 0.9 c0 0.9 1.66 1.36 2.46 1.74 z M69.127 17.42 c0.5 1 1.88 1.58 3 1.58 c1.46 0 2.64 -1 2.8 -2.52 c0.2 -1.86 -1.26 -2.66 -2.7 -3.38 l-0.64 -0.28 c-1.48 -0.66 -2.56 -1.16 -2.56 -2.54 c0 -1.52 1.4 -2.22 2.78 -2.22 c1.26 0 1.92 0.74 2.26 1.2 c0.12 0.16 0.32 0.02 0.2 -0.14 c-0.34 -0.42 -1.06 -1.3 -2.46 -1.3 c-1.58 0 -3.02 0.78 -3.02 2.46 c0 1.5 1.2 2.08 2.72 2.78 l0.62 0.3 c1.98 0.94 2.7 1.82 2.54 3.1 c-0.3 2.04 -1.86 2.3 -2.54 2.3 c-1.5 0 -2.5 -0.9 -2.8 -1.46 c-0.1 -0.1 -0.24 0 -0.2 0.12 z M82.86149999999999 17.5 l4.7 0 c0.1 0 0.18 0.08 0.18 0.18 l0 2.14 c0 0.1 -0.08 0.18 -0.18 0.18 l-7.72 0 c-0.08 0 -0.18 -0.04 -0.18 -0.18 l0 -2.22 s0 -0.02 0.02 -0.08 l4.82 -8.22 l-4.72 0 c-0.1 0 -0.18 -0.08 -0.18 -0.18 l0 -2.14 c0 -0.1 0.08 -0.18 0.18 -0.18 l7.78 0 c0.12 0 0.14 0.12 0.14 0.16 l0 2.24 c0 0.02 0 0.06 -0.02 0.08 z M80.9015 7.9 c-0.14 0 -0.12 0.26 0 0.26 l5.4 0 c0.14 0 0.16 0.04 0.1 0.14 l-5.76 10.06 c-0.1 0.2 0 0.52 0.3 0.52 l5.46 0 c0.16 0 0.16 -0.26 0 -0.26 l-5.46 0 c-0.08 0 -0.1 -0.06 -0.08 -0.14 l5.74 -10.08 c0.2 -0.34 0.04 -0.5 -0.2 -0.5 l-5.5 0 z M96.31599999999999 11.9 c1.52 0.72 3.5 1.86 3.5 3.92 c0 0.6 -0.1 1.76 -0.76 2.74 c-0.74 1.1 -1.9 1.64 -3.5 1.64 c-1.7 0 -3.68 -0.82 -4.3 -2.68 c-0.02 -0.06 0 -0.12 0.06 -0.16 l1.84 -1.58 c0.08 -0.06 0.2 -0.06 0.26 0.04 c0.04 0.1 0.12 0.26 0.22 0.46 c0.3 0.62 1.02 1.24 1.82 1.24 c0.62 0 1.46 -0.34 1.46 -1.3 c0 -0.92 -1.26 -1.44 -2.04 -1.74 c-0.9 -0.36 -1.82 -0.82 -2.6 -1.5 c-0.82 -0.76 -1.22 -1.6 -1.22 -2.6 c0 -2.5 2.3 -3.76 4.48 -3.76 c1.72 0 3 0.9 3.84 2.68 c0.04 0.08 0 0.18 -0.06 0.22 l-1.78 1.24 c-0.08 0.04 -0.12 0.04 -0.2 -0.06 c-0.68 -0.98 -1.28 -1.44 -2.08 -1.44 c-0.42 0 -1.4 0.16 -1.4 0.9 c0 0.9 1.66 1.36 2.46 1.74 z M92.67599999999999 17.42 c0.5 1 1.88 1.58 3 1.58 c1.46 0 2.64 -1 2.8 -2.52 c0.2 -1.86 -1.26 -2.66 -2.7 -3.38 l-0.64 -0.28 c-1.48 -0.66 -2.56 -1.16 -2.56 -2.54 c0 -1.52 1.4 -2.22 2.78 -2.22 c1.26 0 1.92 0.74 2.26 1.2 c0.12 0.16 0.32 0.02 0.2 -0.14 c-0.34 -0.42 -1.06 -1.3 -2.46 -1.3 c-1.58 0 -3.02 0.78 -3.02 2.46 c0 1.5 1.2 2.08 2.72 2.78 l0.62 0.3 c1.98 0.94 2.7 1.82 2.54 3.1 c-0.3 2.04 -1.86 2.3 -2.54 2.3 c-1.5 0 -2.5 -0.9 -2.8 -1.46 c-0.1 -0.1 -0.24 0 -0.2 0.12 z M103.3505 20 c-0.1 0 -0.16 -0.08 -0.16 -0.18 l0 -12.84 c0 -0.1 0.06 -0.18 0.16 -0.18 l6.8 0 c0.1 0 0.18 0.08 0.18 0.18 l0 2.14 c0 0.1 -0.08 0.18 -0.18 0.18 l-4.32 0 l0 2.72 l3.36 0 c0.1 0 0.16 0.08 0.16 0.18 l0 2.18 c0 0.1 -0.06 0.18 -0.16 0.18 l-3.36 0 l0 2.94 l4.32 0 c0.1 0 0.18 0.08 0.18 0.18 l0 2.14 c0 0.1 -0.08 0.18 -0.18 0.18 l-6.8 0 z M104.3505 8.06 l0 10.64 c0 0.12 0.08 0.16 0.16 0.16 l4.6 0 c0.18 0 0.14 -0.24 0 -0.24 l-4.5 0 l0 -5.22 l3.68 0 c0.12 0 0.12 -0.28 0 -0.28 l-3.68 0 l0 -4.96 l4.5 0 c0.14 0 0.18 -0.26 0 -0.26 l-4.6 0 c-0.08 0 -0.16 0.06 -0.16 0.16 z M106.31049999999999 4.52 l0.32 -1.62 c0.02 -0.08 0.08 -0.12 0.18 -0.12 l1.54 0 c0.18 0 0.28 0.1 0.16 0.28 l-1.06 1.52 c-0.06 0.12 -0.14 0.14 -0.2 0.14 l-0.76 0 c-0.08 0 -0.2 -0.06 -0.18 -0.2 z M106.9905 4.0600000000000005 c-0.08 0.14 0.16 0.26 0.22 0.1 l0.28 -0.76 c0.04 -0.14 -0.18 -0.28 -0.26 -0.08 z M118.22499999999998 15.2 c-0.1 0 -0.18 -0.08 -0.18 -0.18 l0 -2.14 c0 -0.1 0.08 -0.18 0.18 -0.18 l4.58 0 c0.1 0 0.18 0.08 0.18 0.18 l0 3.14 c0 2.94 -1.58 4.18 -4.56 4.18 c-2.78 0 -4.6 -1.1 -4.6 -4.18 l0 -5.26 c0 -2.9 1.62 -4.14 4.6 -4.14 c2.8 0 4.56 1.08 4.56 4.14 l0 0.42 c0 0.1 -0.08 0.18 -0.18 0.18 l-2.3 0 c-0.1 0 -0.18 -0.08 -0.18 -0.18 l0 -0.26 c0 -1.22 -0.78 -1.62 -1.8 -1.62 l-0.24 0 c-0.66 0 -1.1 0.18 -1.4 0.58 c-0.28 0.38 -0.38 0.88 -0.38 1.54 l0 3.96 c0 1.74 0.94 2.12 1.78 2.12 l0.24 0 c1.22 0 1.8 -0.84 1.8 -2.12 l0 -0.18 l-2.1 0 z M115.04499999999999 15.879999999999999 c0 2.22 1.08 3.04 3.36 3.04 c2.4 0 3.38 -1 3.38 -3.46 l0 -1.5 c0 -0.06 -0.04 -0.14 -0.08 -0.14 l-2.78 0 c-0.18 0 -0.14 0.26 0 0.26 l2.62 0 l0 1.38 c0 2.14 -0.82 3.24 -3.14 3.24 c-1.92 0 -3.12 -0.68 -3.12 -2.82 l0 -4.82 c0 -2.06 0.94 -2.98 3.12 -2.98 c1.62 0 3.1 0.9 2.98 2.28 c0 0.16 0.22 0.2 0.26 0.02 c0 -1.76 -1.6 -2.52 -3.24 -2.52 c-2 0 -3.36 0.72 -3.36 3.2 l0 4.82 z M140.974 15.379999999999999 l0 -8.4 c0 -0.1 0.08 -0.18 0.18 -0.18 l2.28 0 c0.1 0 0.18 0.08 0.18 0.18 l0 9.04 c0 2.88 -1.58 4.18 -4.56 4.18 c-2.82 0 -4.58 -1.12 -4.58 -4.18 l0 -9.04 c0 -0.1 0.08 -0.18 0.18 -0.18 l2.3 0 c0.1 0 0.18 0.08 0.18 0.18 l0 8.4 c0 1.74 0.98 2.12 1.8 2.12 l0.24 0 c1.24 0 1.8 -0.84 1.8 -2.12 z M135.71399999999997 8.08 l0 7.78 c0 1.8 1.22 3.1 3.12 3.1 l0.5 0 c1.9 0 3.14 -1.36 3.14 -3.1 l0 -7.78 c0 -0.18 -0.24 -0.2 -0.24 0 l0 7.78 c0 1.64 -1.18 2.84 -2.9 2.84 l-0.5 0 c-1.68 0 -2.88 -1.08 -2.88 -2.84 l0 -7.78 c0 -0.18 -0.24 -0.18 -0.24 0 z M138.37399999999997 4.52 l0.32 -1.62 c0.02 -0.08 0.08 -0.12 0.18 -0.12 l1.54 0 c0.18 0 0.28 0.1 0.16 0.28 l-1.06 1.52 c-0.06 0.12 -0.14 0.14 -0.2 0.14 l-0.76 0 c-0.08 0 -0.2 -0.06 -0.18 -0.2 z M139.05399999999997 4.0600000000000005 c-0.08 0.14 0.16 0.26 0.22 0.1 l0.28 -0.76 c0.04 -0.14 -0.18 -0.28 -0.26 -0.08 z M151.7085 6.800000000000001 l2.3 0 c0.1 0 0.18 0.08 0.18 0.18 l0 9.58 c0 1.94 -1.56 3.62 -3.6 3.62 l-0.5 0 c-0.84 0 -1.66 -0.32 -2.38 -0.9 c-0.6 -0.56 -1.18 -1.3 -1.56 -2.12 c-0.04 -0.1 -0.02 -0.18 0.06 -0.24 l2.1 -1.46 c0.08 -0.06 0.2 -0.06 0.24 0.06 c0.28 0.8 0.76 1.98 1.8 1.98 c1 0 1.18 -1.38 1.18 -2.22 l0 -8.3 c0 -0.1 0.08 -0.18 0.18 -0.18 z M147.9885 17.2 c-0.08 -0.12 -0.3 0 -0.2 0.16 c0.5 0.84 1.06 1.6 2.52 1.6 c1.68 0 2.68 -1.3 2.68 -3.46 l0 -7.5 c0 -0.12 -0.26 -0.14 -0.26 0 l0 7.5 c0 0.98 -0.2 1.8 -0.62 2.36 c-0.42 0.54 -1.02 0.84 -1.8 0.84 c-1.32 0 -1.82 -0.68 -2.32 -1.5 z M171.15749999999997 6.800000000000001 c1.36 0 2.38 0.38 3.06 1.12 c0.6 0.66 0.9 1.64 0.9 2.84 l0 5.3 c0 2.42 -1.4 3.94 -3.96 3.94 l-5 0 c-0.1 0 -0.16 -0.08 -0.16 -0.18 l0 -12.84 c0 -0.1 0.06 -0.18 0.16 -0.18 l5 0 z M172.49749999999997 15.46 l0 -4.1 c0 -1.26 -0.66 -2.06 -2.06 -2.06 l-1.8 0 l0 8.2 l1.8 0 c1.2 0 2.06 -0.78 2.06 -2.04 z M167.21749999999997 8.02 l0 10.76 c0 0.08 0.08 0.1 0.12 0.1 l3.26 0 c2.3 0 3.34 -1.38 3.34 -2.66 l0 -5.12 c0 -2.12 -1.12 -3.2 -3.4 -3.2 l-3.2 0 c-0.04 0 -0.12 0.02 -0.12 0.12 z M173.6975 11.1 l0 5.12 c0 1.6 -1.6 2.44 -3.1 2.44 l-3.14 0 l0 -10.5 l3.08 0 c2.1 0 3.16 0.94 3.16 2.94 z M179.15199999999996 20 c-0.1 0 -0.16 -0.08 -0.16 -0.18 l0 -12.84 c0 -0.1 0.06 -0.18 0.16 -0.18 l2.28 0 c0.1 0 0.18 0.08 0.18 0.18 l0 12.84 c0 0.1 -0.08 0.18 -0.18 0.18 l-2.28 0 z M180.19199999999998 8 l0 10.78 c0 0.18 0.22 0.18 0.22 0 l0 -10.78 c0 -0.14 -0.22 -0.14 -0.22 0 z M196.70649999999995 6.800000000000001 c0.1 0 0.18 0.08 0.18 0.18 l0 12.84 c0 0.1 -0.08 0.18 -0.18 0.18 l-2.18 0 c-0.06 0 -0.16 -0.08 -0.16 -0.18 l0 -7.4 l-2.2 7.46 c-0.04 0.08 -0.08 0.12 -0.16 0.12 l-1.58 0 c-0.06 0 -0.14 -0.04 -0.16 -0.12 l-2.06 -7.6 l0 7.54 c0 0.1 -0.08 0.18 -0.18 0.18 l-2.22 0 c-0.08 0 -0.14 -0.08 -0.14 -0.18 l0 -12.84 c0 -0.1 0.06 -0.18 0.14 -0.18 l2.8 0 c0.08 0 0.16 0.06 0.18 0.12 l2.42 8.1 l2.66 -8.1 c0 -0.06 0.06 -0.12 0.14 -0.12 l2.7 0 z M195.46649999999997 18.78 c0 0.14 0.26 0.18 0.26 0 l0 -10.78 c0 -0.04 -0.06 -0.1 -0.12 -0.1 l-0.94 0 c-0.08 0 -0.1 0.06 -0.14 0.1 l-3.32 9.9 l-3.3 -9.92 c0 -0.06 -0.04 -0.08 -0.1 -0.08 l-0.98 0 c-0.06 0 -0.12 0.06 -0.12 0.12 l0 10.76 c0 0.14 0.26 0.18 0.26 0 l0 -10.62 l0.74 0 l3.38 10.16 c0.08 0.14 0.14 0.1 0.24 0 l3.4 -10.16 l0.74 0 l0 10.62 z M201.18099999999995 20 c-0.1 0 -0.16 -0.08 -0.16 -0.18 l0 -12.84 c0 -0.1 0.06 -0.18 0.16 -0.18 l6.8 0 c0.1 0 0.18 0.08 0.18 0.18 l0 2.14 c0 0.1 -0.08 0.18 -0.18 0.18 l-4.32 0 l0 2.72 l3.36 0 c0.1 0 0.16 0.08 0.16 0.18 l0 2.18 c0 0.1 -0.06 0.18 -0.16 0.18 l-3.36 0 l0 2.94 l4.32 0 c0.1 0 0.18 0.08 0.18 0.18 l0 2.14 c0 0.1 -0.08 0.18 -0.18 0.18 l-6.8 0 z M202.18099999999995 8.06 l0 10.64 c0 0.12 0.08 0.16 0.16 0.16 l4.6 0 c0.18 0 0.14 -0.24 0 -0.24 l-4.5 0 l0 -5.22 l3.68 0 c0.12 0 0.12 -0.28 0 -0.28 l-3.68 0 l0 -4.96 l4.5 0 c0.14 0 0.18 -0.26 0 -0.26 l-4.6 0 c-0.08 0 -0.16 0.06 -0.16 0.16 z M217.37549999999996 6.98 c0 -0.1 0.08 -0.18 0.18 -0.18 l2.3 0 c0.1 0 0.18 0.08 0.18 0.18 l0 12.84 c0 0.1 -0.08 0.18 -0.18 0.18 l-2.22 0 c-0.08 0 -0.16 -0.04 -0.18 -0.1 l-2.92 -6.58 l0 6.5 c0 0.1 -0.08 0.18 -0.18 0.18 l-2.28 0 c-0.1 0 -0.16 -0.08 -0.16 -0.18 l0 -12.84 c0 -0.1 0.06 -0.18 0.16 -0.18 l2.36 0 c0.08 0 0.12 0.06 0.14 0.1 l2.8 6.46 l0 -6.38 z M218.81549999999996 18.8 l0 -10.8 c0 -0.14 -0.26 -0.18 -0.26 0 l0 10.28 l-5.22 -10.32 c-0.06 -0.08 -0.22 -0.08 -0.22 0.04 l0 10.78 c0 0.18 0.24 0.18 0.24 0 l0 -10.26 l5.2 10.3 c0.08 0.14 0.26 0.1 0.26 -0.02 z M227.38999999999996 17.5 l4.7 0 c0.1 0 0.18 0.08 0.18 0.18 l0 2.14 c0 0.1 -0.08 0.18 -0.18 0.18 l-7.72 0 c-0.08 0 -0.18 -0.04 -0.18 -0.18 l0 -2.22 s0 -0.02 0.02 -0.08 l4.82 -8.22 l-4.72 0 c-0.1 0 -0.18 -0.08 -0.18 -0.18 l0 -2.14 c0 -0.1 0.08 -0.18 0.18 -0.18 l7.78 0 c0.12 0 0.14 0.12 0.14 0.16 l0 2.24 c0 0.02 0 0.06 -0.02 0.08 z M225.42999999999995 7.9 c-0.14 0 -0.12 0.26 0 0.26 l5.4 0 c0.14 0 0.16 0.04 0.1 0.14 l-5.76 10.06 c-0.1 0.2 0 0.52 0.3 0.52 l5.46 0 c0.16 0 0.16 -0.26 0 -0.26 l-5.46 0 c-0.08 0 -0.1 -0.06 -0.08 -0.14 l5.74 -10.08 c0.2 -0.34 0.04 -0.5 -0.2 -0.5 l-5.5 0 z M236.50449999999995 20 c-0.1 0 -0.16 -0.08 -0.16 -0.18 l0 -12.84 c0 -0.1 0.06 -0.18 0.16 -0.18 l2.28 0 c0.1 0 0.18 0.08 0.18 0.18 l0 12.84 c0 0.1 -0.08 0.18 -0.18 0.18 l-2.28 0 z M237.54449999999997 8 l0 10.78 c0 0.18 0.22 0.18 0.22 0 l0 -10.78 c0 -0.14 -0.22 -0.14 -0.22 0 z M247.35899999999995 6.619999999999999 c1.72 0 2.92 0.38 3.68 1.2 c0.6 0.66 0.88 1.6 0.88 2.94 l0 5.26 c0 1.38 -0.28 2.34 -0.88 2.98 c-0.78 0.8 -1.96 1.2 -3.68 1.2 c-1.78 0 -2.94 -0.4 -3.7 -1.2 c-0.58 -0.64 -0.9 -1.6 -0.9 -2.98 l0 -5.26 c0 -1.34 0.32 -2.28 0.9 -2.96 c0.78 -0.8 1.96 -1.18 3.7 -1.18 z M249.25899999999996 15.42 l0 -4 c0 -1.76 -0.94 -2.12 -1.8 -2.12 l-0.24 0 c-1.28 0 -1.78 0.82 -1.78 2.12 l0 4 c0 1.76 0.94 2.14 1.78 2.14 l0.24 0 c1.28 0 1.78 -0.86 1.8 -2.14 z M244.01899999999995 10.9 l0 4.96 c0 0.94 0.24 1.72 0.8 2.3 c0.52 0.52 1.32 0.8 2.3 0.8 l0.52 0 c1.88 0 3.1 -1.2 3.1 -3.1 l0 -4.96 c0 -2.04 -1.08 -3.14 -3.1 -3.14 l-0.52 0 c-2.04 0 -3.1 1.1 -3.1 3.14 z M247.63899999999995 18.7 l-0.52 0 c-0.94 0 -1.64 -0.24 -2.14 -0.74 s-0.76 -1.2 -0.76 -2.1 l0 -4.96 c0 -1.9 1.02 -2.9 2.9 -2.9 l0.52 0 c1.9 0 2.84 0.98 2.84 2.9 l0 4.96 c0 0.84 -0.26 1.6 -0.8 2.12 c-0.52 0.44 -1.22 0.72 -2.04 0.72 z M246.93899999999996 4.52 l0.32 -1.62 c0.02 -0.08 0.08 -0.12 0.18 -0.12 l1.54 0 c0.18 0 0.28 0.1 0.16 0.28 l-1.06 1.52 c-0.06 0.12 -0.14 0.14 -0.2 0.14 l-0.76 0 c-0.08 0 -0.2 -0.06 -0.18 -0.2 z M247.61899999999994 4.0600000000000005 c-0.08 0.14 0.16 0.26 0.22 0.1 l0.28 -0.76 c0.04 -0.14 -0.18 -0.28 -0.26 -0.08 z M259.91349999999994 6.800000000000001 l2.3 0 c0.1 0 0.18 0.08 0.18 0.18 l0 9.58 c0 1.94 -1.56 3.62 -3.6 3.62 l-0.5 0 c-0.84 0 -1.66 -0.32 -2.38 -0.9 c-0.6 -0.56 -1.18 -1.3 -1.56 -2.12 c-0.04 -0.1 -0.02 -0.18 0.06 -0.24 l2.1 -1.46 c0.08 -0.06 0.2 -0.06 0.24 0.06 c0.28 0.8 0.76 1.98 1.8 1.98 c1 0 1.18 -1.38 1.18 -2.22 l0 -8.3 c0 -0.1 0.08 -0.18 0.18 -0.18 z M256.1934999999999 17.2 c-0.08 -0.12 -0.3 0 -0.2 0.16 c0.5 0.84 1.06 1.6 2.52 1.6 c1.68 0 2.68 -1.3 2.68 -3.46 l0 -7.5 c0 -0.12 -0.26 -0.14 -0.26 0 l0 7.5 c0 0.98 -0.2 1.8 -0.62 2.36 c-0.42 0.54 -1.02 0.84 -1.8 0.84 c-1.32 0 -1.82 -0.68 -2.32 -1.5 z M268.84799999999996 6.92 c0.02 -0.06 0.06 -0.12 0.14 -0.12 l2.48 0 c0.08 0 0.12 0.06 0.14 0.12 l3.46 12.86 c0.02 0.12 -0.06 0.22 -0.18 0.22 l-2.28 0 c-0.06 0 -0.12 -0.04 -0.14 -0.12 l-0.78 -2.8 l-2.92 0 l-0.76 2.8 c-0.02 0.08 -0.06 0.12 -0.14 0.12 l-2.3 0 c-0.12 0 -0.2 -0.1 -0.18 -0.22 z M269.40799999999996 14.6 l1.66 0 l-0.86 -3.02 z M272.48799999999994 15.780000000000001 l0.92 3 c0.04 0.12 0.26 0.1 0.2 -0.06 l-3.2 -10.64 c-0.06 -0.26 -0.4 -0.28 -0.46 0 l-3.1 10.64 c-0.06 0.14 0.16 0.2 0.22 0.08 l0.88 -3.02 l4.54 0 z M268.008 15.52 l2.18 -7.36 l2.22 7.36 l-4.4 0 z M280.78249999999997 16.06 l-2.2 0 c-0.1 0 -0.18 -0.08 -0.18 -0.18 l-0.54 -8.92 c0 -0.16 0.1 -0.18 0.18 -0.18 l3.26 0 c0.14 0 0.18 0.1 0.18 0.18 l-0.52 8.92 c0 0.1 -0.08 0.18 -0.18 0.18 z M279.76249999999993 16.66 c1 0 1.78 0.76 1.78 1.74 s-0.78 1.78 -1.78 1.78 c-0.96 0 -1.72 -0.8 -1.72 -1.78 s0.76 -1.74 1.72 -1.74 z M279.5825 7.98 l0 6.84 c0 0.16 0.26 0.18 0.26 0 l0 -6.84 c0 -0.18 -0.26 -0.18 -0.26 0 z M279.80249999999995 18.2 c-0.16 0 -0.32 0.12 -0.32 0.3 s0.16 0.3 0.32 0.3 c0.18 0 0.3 -0.12 0.3 -0.3 s-0.12 -0.3 -0.3 -0.3 z"></path></g>
			</g>
		</svg>
	